<?xml version="1.0" encoding="utf-8"?>
<!-- Generator: Adobe Illustrator 19.1.0, SVG Export Plug-In . SVG Version: 6.00 Build 0)  -->
<svg version="1.1" id="devnet-logo" xmlns="http://www.w3.org/2000/svg" xmlns:xlink="http://www.w3.org/1999/xlink" x="0px"
	 y="0px" viewBox="0 0 179.3 179.3" style="enable-background:new 0 0 179.3 179.3;" xml:space="preserve">
<style type="text/css">
	.st0{fill:#FFFFFF;}
	.st1{fill:#F18C21;}
	.st2{opacity:5.000000e-02;}
	.st3{clip-path:url(#SVGID_2_);}
	.st4{clip-path:url(#SVGID_4_);}
	.st5{clip-path:url(#SVGID_6_);}
	.st6{clip-path:url(#SVGID_8_);}
	.st7{clip-path:url(#SVGID_10_);}
	.st8{clip-path:url(#SVGID_12_);}
	.st9{fill:#92C83E;}
	.st10{fill:#D26D39;}
	.st11{fill:#CF463C;}
	.st12{fill:#60B2A1;}
	.st13{fill:#1C75BC;}
	.st14{fill:#919092;}
	.st15{fill:#B0B1B2;}
	.st16{fill:#8C8E90;}
	.st17{fill:#3B3C3D;}
	.st18{fill:#CDCFD0;}
	.st19{fill:#F9CF11;}
	.st20{fill:#C7C8CA;}
	.st21{fill:#737577;}
	.st22{fill:#ED2224;}
	.st23{fill:#48494B;}
	.st24{opacity:2.999880e-02;}
	.st25{fill:#4B4B4E;}
</style>
<g>
	<path class="st23" d="M89.7,4.2C42.5,4.2,4.2,42.5,4.2,89.7s38.4,85.5,85.5,85.5s85.5-38.4,85.5-85.5S136.8,4.2,89.7,4.2"/>
</g>
<g>
	<path class="st0" d="M89.7,179.3C40.2,179.3,0,139.1,0,89.7S40.2,0,89.7,0c49.4,0,89.7,40.2,89.7,89.7S139.1,179.3,89.7,179.3z
		 M89.7,8.3C44.8,8.3,8.3,44.8,8.3,89.7c0,44.9,36.5,81.4,81.4,81.4c44.9,0,81.4-36.5,81.4-81.4C171,44.8,134.5,8.3,89.7,8.3z"/>
</g>
<path class="st1" d="M75.9,69.7h-0.1c-3.4,0-6.1,1.9-6.1,4.4v31.8c0,2.4,2.7,4.4,6.1,4.4h0.1c3.4,0,6.1-1.9,6.1-4.4V74.1
	C82,71.7,79.4,69.7,75.9,69.7z"/>
<path class="st0" d="M110.3,59.2L110.3,59.2c-10-8.1-20.5-9.8-33.1-9.8h-2.3c-2.8,0-5.1,2.3-5.1,5.1c0,2.8,2.3,5.1,5.1,5.1h2.6
	c9.8,0,17.8,1.3,25.2,7.4c6.6,5.5,10.4,13.9,10.4,22.9c0,8.7-3.6,16.7-10,22.4c-7.3,6.6-15.5,7.9-25.6,7.9h-2.6
	c-2.8,0-5.1,2.3-5.1,5.1s2.3,5.1,5.1,5.1h2.1c13.3,0,23.5-1.7,33.6-10.2c9.1-7.7,13.9-18.2,13.9-30.3
	C124.5,77.5,119.6,66.8,110.3,59.2z"/>
</svg>
